<mxfile host="Electron" modified="2024-05-04T11:10:41.730Z" agent="Mozilla/5.0 (Windows NT 10.0; Win64; x64) AppleWebKit/537.36 (KHTML, like Gecko) draw.io/24.2.5 Chrome/120.0.6099.109 Electron/28.1.0 Safari/537.36" etag="K5x_LxDnxwQlNAy_uIGk" version="24.2.5" type="device">
  <diagram id="C5RBs43oDa-KdzZeNtuy" name="Page-1">
    <mxGraphModel dx="864" dy="1685" grid="1" gridSize="10" guides="1" tooltips="1" connect="1" arrows="1" fold="1" page="1" pageScale="1" pageWidth="827" pageHeight="1169" math="0" shadow="0">
      <root>
        <mxCell id="WIyWlLk6GJQsqaUBKTNV-0" />
        <mxCell id="WIyWlLk6GJQsqaUBKTNV-1" parent="WIyWlLk6GJQsqaUBKTNV-0" />
        <mxCell id="ry4p_VpCI128jxK-74W_-40" value="" style="edgeStyle=orthogonalEdgeStyle;rounded=0;orthogonalLoop=1;jettySize=auto;html=1;" edge="1" parent="WIyWlLk6GJQsqaUBKTNV-1" source="ry4p_VpCI128jxK-74W_-38" target="ry4p_VpCI128jxK-74W_-39">
          <mxGeometry relative="1" as="geometry" />
        </mxCell>
        <mxCell id="ry4p_VpCI128jxK-74W_-42" value="" style="edgeStyle=orthogonalEdgeStyle;rounded=0;orthogonalLoop=1;jettySize=auto;html=1;" edge="1" parent="WIyWlLk6GJQsqaUBKTNV-1" source="ry4p_VpCI128jxK-74W_-38" target="ry4p_VpCI128jxK-74W_-41">
          <mxGeometry relative="1" as="geometry" />
        </mxCell>
        <mxCell id="ry4p_VpCI128jxK-74W_-38" value="Animal" style="rounded=0;whiteSpace=wrap;html=1;" vertex="1" parent="WIyWlLk6GJQsqaUBKTNV-1">
          <mxGeometry x="320" y="-440" width="120" height="80" as="geometry" />
        </mxCell>
        <mxCell id="ry4p_VpCI128jxK-74W_-54" value="" style="edgeStyle=orthogonalEdgeStyle;rounded=0;orthogonalLoop=1;jettySize=auto;html=1;" edge="1" parent="WIyWlLk6GJQsqaUBKTNV-1" source="ry4p_VpCI128jxK-74W_-39" target="ry4p_VpCI128jxK-74W_-50">
          <mxGeometry relative="1" as="geometry" />
        </mxCell>
        <mxCell id="ry4p_VpCI128jxK-74W_-39" value="packAnimals" style="rounded=0;whiteSpace=wrap;html=1;" vertex="1" parent="WIyWlLk6GJQsqaUBKTNV-1">
          <mxGeometry x="520" y="-440" width="120" height="80" as="geometry" />
        </mxCell>
        <mxCell id="ry4p_VpCI128jxK-74W_-44" value="" style="edgeStyle=orthogonalEdgeStyle;rounded=0;orthogonalLoop=1;jettySize=auto;html=1;" edge="1" parent="WIyWlLk6GJQsqaUBKTNV-1" source="ry4p_VpCI128jxK-74W_-41" target="ry4p_VpCI128jxK-74W_-43">
          <mxGeometry relative="1" as="geometry" />
        </mxCell>
        <mxCell id="ry4p_VpCI128jxK-74W_-41" value="homeAnimals" style="rounded=0;whiteSpace=wrap;html=1;" vertex="1" parent="WIyWlLk6GJQsqaUBKTNV-1">
          <mxGeometry x="120" y="-440" width="120" height="80" as="geometry" />
        </mxCell>
        <mxCell id="ry4p_VpCI128jxK-74W_-46" value="" style="edgeStyle=orthogonalEdgeStyle;rounded=0;orthogonalLoop=1;jettySize=auto;html=1;" edge="1" parent="WIyWlLk6GJQsqaUBKTNV-1" source="ry4p_VpCI128jxK-74W_-43" target="ry4p_VpCI128jxK-74W_-45">
          <mxGeometry relative="1" as="geometry" />
        </mxCell>
        <mxCell id="ry4p_VpCI128jxK-74W_-43" value="Dogs" style="whiteSpace=wrap;html=1;rounded=0;" vertex="1" parent="WIyWlLk6GJQsqaUBKTNV-1">
          <mxGeometry x="120" y="-320" width="120" height="60" as="geometry" />
        </mxCell>
        <mxCell id="ry4p_VpCI128jxK-74W_-48" value="" style="edgeStyle=orthogonalEdgeStyle;rounded=0;orthogonalLoop=1;jettySize=auto;html=1;" edge="1" parent="WIyWlLk6GJQsqaUBKTNV-1" source="ry4p_VpCI128jxK-74W_-45" target="ry4p_VpCI128jxK-74W_-47">
          <mxGeometry relative="1" as="geometry" />
        </mxCell>
        <mxCell id="ry4p_VpCI128jxK-74W_-45" value="Cats" style="whiteSpace=wrap;html=1;rounded=0;" vertex="1" parent="WIyWlLk6GJQsqaUBKTNV-1">
          <mxGeometry x="120" y="-240" width="120" height="60" as="geometry" />
        </mxCell>
        <mxCell id="ry4p_VpCI128jxK-74W_-47" value="Hamsters" style="whiteSpace=wrap;html=1;rounded=0;" vertex="1" parent="WIyWlLk6GJQsqaUBKTNV-1">
          <mxGeometry x="120" y="-160" width="120" height="60" as="geometry" />
        </mxCell>
        <mxCell id="ry4p_VpCI128jxK-74W_-49" value="" style="edgeStyle=orthogonalEdgeStyle;rounded=0;orthogonalLoop=1;jettySize=auto;html=1;" edge="1" parent="WIyWlLk6GJQsqaUBKTNV-1" source="ry4p_VpCI128jxK-74W_-50" target="ry4p_VpCI128jxK-74W_-52">
          <mxGeometry relative="1" as="geometry" />
        </mxCell>
        <mxCell id="ry4p_VpCI128jxK-74W_-50" value="Horses" style="whiteSpace=wrap;html=1;rounded=0;" vertex="1" parent="WIyWlLk6GJQsqaUBKTNV-1">
          <mxGeometry x="520" y="-320" width="120" height="60" as="geometry" />
        </mxCell>
        <mxCell id="ry4p_VpCI128jxK-74W_-51" value="" style="edgeStyle=orthogonalEdgeStyle;rounded=0;orthogonalLoop=1;jettySize=auto;html=1;" edge="1" parent="WIyWlLk6GJQsqaUBKTNV-1" source="ry4p_VpCI128jxK-74W_-52" target="ry4p_VpCI128jxK-74W_-53">
          <mxGeometry relative="1" as="geometry" />
        </mxCell>
        <mxCell id="ry4p_VpCI128jxK-74W_-52" value="Camels" style="whiteSpace=wrap;html=1;rounded=0;" vertex="1" parent="WIyWlLk6GJQsqaUBKTNV-1">
          <mxGeometry x="520" y="-240" width="120" height="60" as="geometry" />
        </mxCell>
        <mxCell id="ry4p_VpCI128jxK-74W_-53" value="Donkeys" style="whiteSpace=wrap;html=1;rounded=0;" vertex="1" parent="WIyWlLk6GJQsqaUBKTNV-1">
          <mxGeometry x="520" y="-160" width="120" height="60" as="geometry" />
        </mxCell>
      </root>
    </mxGraphModel>
  </diagram>
</mxfile>
